<?xml version="1.0" encoding="utf-8"?>
<!-- Generator: Adobe Illustrator 27.7.0, SVG Export Plug-In . SVG Version: 6.00 Build 0)  -->
<svg version="1.1" id="Capa_1" xmlns="http://www.w3.org/2000/svg" xmlns:xlink="http://www.w3.org/1999/xlink" x="0px" y="0px"
	 viewBox="0 0 13.8 9.8" style="enable-background:new 0 0 13.8 9.8;" xml:space="preserve">
<style type="text/css">
	.st0{fill:#FFFFFF;}
</style>
<g id="Capa_1_00000001659642512958056710000013210579705760872325_">
	<g>
		<path class="st0" d="M11.2,0.1H2.5C1.1,0.1,0,1.2,0,2.6v4.7c0,1.4,1.1,2.5,2.5,2.5h8.7c1.4,0,2.5-1.1,2.5-2.5V2.6
			C13.8,1.2,12.6,0.1,11.2,0.1z M4.7,1.5c1,0,1.8,0.8,1.8,1.8S5.7,5.2,4.7,5.2S2.8,4.4,2.8,3.4S3.7,1.5,4.7,1.5z M7.2,8.2
			C7.2,8.2,7.1,8.2,7,8.2c-0.2,0-0.4-0.1-0.4-0.3L6.3,7.3C6.1,7.1,5.8,6.9,5.5,6.9H3.8c-0.3,0-0.6,0.2-0.8,0.5L2.8,7.9
			C2.7,8.2,2.3,8.3,2.1,8.2C1.8,8,1.8,7.7,1.9,7.5l0.3-0.6c0.3-0.6,0.9-1,1.7-1h1.7c0.7,0,1.3,0.4,1.6,1l0.3,0.6
			C7.6,7.7,7.5,8,7.2,8.2z M11.4,5.7H8.8c-0.3,0-0.5-0.2-0.5-0.5s0.2-0.5,0.5-0.5h2.7c0.3,0,0.5,0.2,0.5,0.5S11.7,5.7,11.4,5.7z
			 M11.4,3.9H8.8c-0.3,0-0.5-0.2-0.5-0.5c0-0.3,0.2-0.5,0.5-0.5h2.7c0.3,0,0.5,0.2,0.5,0.5C11.9,3.7,11.7,3.9,11.4,3.9z"/>
		<g>
			<circle class="st0" cx="4.7" cy="3.4" r="0.9"/>
		</g>
	</g>
</g>
<g id="Capa_2_00000093168831981523822240000009253146045139943337_">
</g>
</svg>
