<?xml version="1.0" encoding="utf-8"?>
<!-- Generator: Adobe Illustrator 27.7.0, SVG Export Plug-In . SVG Version: 6.00 Build 0)  -->
<svg version="1.1" id="Capa_1" xmlns="http://www.w3.org/2000/svg" xmlns:xlink="http://www.w3.org/1999/xlink" x="0px" y="0px"
	 viewBox="0 0 9.7 9.7" style="enable-background:new 0 0 9.7 9.7;" xml:space="preserve">
<style type="text/css">
	.st0{fill:#FFFFFF;}
</style>
<g id="Capa_1_00000174594914416616069140000006774138557837751432_">
	<g>
		<path class="st0" d="M6.2,0H3.6C1.6,0,0,1.6,0,3.5v2.6c0,2,1.6,3.5,3.6,3.5h2.6c2,0,3.6-1.6,3.6-3.5V3.6C9.7,1.6,8.1,0,6.2,0z
			 M4.9,1.5c1,0,1.8,0.8,1.8,1.8c0,1-0.8,1.8-1.8,1.8C3.8,5.1,3,4.3,3,3.3C3,2.3,3.8,1.5,4.9,1.5z M7.4,8.1c-0.1,0-0.1,0-0.2,0
			C7,8.2,6.9,8.1,6.8,7.9L6.5,7.3C6.3,7,6,6.8,5.7,6.8H4C3.7,6.8,3.4,7,3.3,7.3L3,7.9C2.8,8.1,2.5,8.2,2.3,8.1C2,8,1.9,7.7,2.1,7.4
			l0.3-0.6c0.3-0.6,1-1,1.7-1h1.7c0.7,0,1.3,0.4,1.6,1l0.3,0.6C7.8,7.7,7.7,8,7.4,8.1z"/>
		<path class="st0" d="M4.9,4.2c0.5,0,0.9-0.4,0.9-0.9c0-0.5-0.4-0.9-0.9-0.9C4.4,2.4,4,2.8,4,3.3C4,3.8,4.4,4.2,4.9,4.2z"/>
	</g>
</g>
<g id="Capa_2_00000049944249658805218970000003802078047212926642_">
</g>
</svg>
